# xmcd
#
# Track frame offsets:
#	150
#	15376
#	28314
#	40858
#	54474
#	71858
#	88221
#	103239
#	116281
#	132498
#	149669
#	162894
#	176485
#
# Disc length: 2585 seconds
#
# Revision: 0
# Processed by: cddbd v1.5.2PL0 Copyright (c) Steve Scherf et al.
# Submitted via: EZCDAudioConverter 3.1.0.1
#
DISCID=bb0a170d
DTITLE=Various Artist - Ollaan vapaita
DYEAR=2015
DGENRE=
TTITLE0=Maria Ylip‰‰ - Viel‰ hetki
TTITLE1=Johannes Brotherus - Suurmies
TTITLE2=Pihla Maalismaa ja Maria Ylip‰‰ - Taivas on meille auki
TTITLE3=Riku Nieminen - ƒs ja Koo
TTITLE4=Maria Ylip‰‰, Johannes Brotherus, Riku Nieminen ja Pihla Maalismaa - O
TTITLE4=llaan vapaita
TTITLE5=Pihla Maalismaa ja Johannes Brotherus - Sammutetaan bensalla tulta
TTITLE6=Maria Ylip‰‰ - Mit‰ se on
TTITLE7=Maria Ylip‰‰ ja Peter Kanerva - T‰ydellinen
TTITLE8=Riku Nieminen, Maria Ylip‰‰, Pihla Maalismaa ja Vapaiden kuoro - Milt‰
TTITLE8=n‰ytt‰‰ huominen
TTITLE9=Maria Ylip‰‰ ja Johannes Brotherus - Kaunis myrsky
TTITLE10=Pihla Maalismaa ja Riku Nieminen - Shapadapaduudaa (Todellakin mit‰ v
TTITLE10=aan)
TTITLE11=Johannes Brotherus - Mun el‰m‰ alkaa
TTITLE12=Johannes Brotherus, Maria Ylip‰‰, Peter Kanerva, Riku Nieminen, Pihla
TTITLE12=Maalismaa ja Anu Sinisalo - El‰m‰n tarkoitus
EXTD=
EXTT0=
EXTT1=
EXTT2=
EXTT3=
EXTT4=
EXTT5=
EXTT6=
EXTT7=
EXTT8=
EXTT9=
EXTT10=
EXTT11=
EXTT12=
PLAYORDER=
